<?xml version="1.0" standalone="no"?>
<!DOCTYPE svg PUBLIC "-//W3C//DTD SVG 20010904//EN"
 "http://www.w3.org/TR/2001/REC-SVG-20010904/DTD/svg10.dtd">
<svg version="1.0" xmlns="http://www.w3.org/2000/svg"
 width="16.000000pt" height="16.000000pt" viewBox="0 0 16.000000 16.000000"
 preserveAspectRatio="xMidYMid meet">
<metadata>
Created by potrace 1.11, written by Peter Selinger 2001-2013
</metadata>
<g transform="translate(0.000000,16.000000) scale(0.003579,-0.003579)"
fill="#000000" stroke="none">
<path d="M3950 4206 l-466 -71 -64 -46 c-1364 -965 -2085 -1481 -2125 -1520
-105 -102 -151 -221 -142 -366 6 -103 34 -166 115 -254 58 -62 158 -129 196
-129 9 0 16 -3 16 -7 0 -5 -141 -107 -312 -228 -171 -121 -399 -282 -507 -358
l-195 -138 -233 -446 c-129 -245 -231 -448 -229 -451 3 -2 216 28 473 67 257
39 476 71 485 71 24 0 2161 1517 2229 1582 92 88 135 210 126 355 -6 103 -34
166 -115 254 -58 63 -158 129 -197 129 -9 0 -15 4 -13 9 2 7 744 537 962 688
48 33 56 47 283 480 128 245 233 447 233 449 0 9 -76 -1 -520 -70z m210 -151
c0 -10 -215 -435 -220 -435 -8 1 -253 347 -252 356 0 5 96 25 214 45 217 37
258 43 258 34z m-491 -350 c149 -205 159 -221 143 -236 -9 -9 -290 -210 -623
-447 -334 -238 -612 -438 -619 -447 -21 -25 -14 -94 11 -121 30 -32 76 -31
147 4 147 70 321 7 391 -143 47 -99 16 -242 -68 -318 -57 -51 -2070 -1479
-2080 -1475 -5 2 -82 102 -170 223 -149 205 -159 221 -143 236 9 9 280 207
602 439 322 233 595 432 608 443 32 30 31 99 -3 132 -32 33 -72 32 -138 -1
-174 -89 -379 14 -418 208 -11 52 -9 60 15 114 15 32 42 77 61 100 21 25 170
139 372 283 1458 1039 1739 1237 1745 1232 4 -3 79 -105 167 -226z m-2991
-3035 c67 -99 125 -185 127 -192 4 -10 -57 -23 -231 -51 -130 -21 -238 -37
-240 -34 -5 5 208 457 216 457 3 0 60 -81 128 -180z"/>
</g>
</svg>
