<?xml version="1.0" standalone="no"?>
<!DOCTYPE svg PUBLIC "-//W3C//DTD SVG 20010904//EN"
 "http://www.w3.org/TR/2001/REC-SVG-20010904/DTD/svg10.dtd">
<svg version="1.0" xmlns="http://www.w3.org/2000/svg"
 width="16.000000pt" height="16.000000pt" viewBox="0 0 16.000000 16.000000"
 preserveAspectRatio="xMidYMid meet">
<metadata>
Created by potrace 1.11, written by Peter Selinger 2001-2013
</metadata>
<g transform="translate(0.000000,16.000000) scale(0.003200,-0.003200)"
fill="#000000" stroke="none">
<path d="M4218 4445 c-453 -70 -467 -73 -505 -102 -21 -16 -490 -351 -1043
-743 -553 -392 -1029 -731 -1058 -753 -65 -50 -136 -146 -164 -224 -16 -43
-21 -83 -21 -153 -1 -87 2 -102 30 -160 52 -110 152 -206 256 -247 l44 -18
-508 -360 -509 -360 -235 -449 c-129 -247 -233 -451 -232 -453 6 -5 991 146
1003 154 163 108 2163 1540 2197 1572 89 86 133 210 125 357 -6 105 -37 171
-126 263 -64 65 -151 121 -189 121 -15 0 -15 2 -3 15 8 8 238 172 509 364
l495 350 233 443 c128 244 232 446 233 451 0 13 -59 5 -532 -68z m222 -150 c0
-10 -215 -435 -220 -435 -7 1 -259 354 -255 358 3 3 435 79 463 81 6 1 12 -1
12 -4z m-496 -350 c110 -151 156 -222 150 -231 -5 -7 -288 -211 -629 -454
-444 -316 -622 -448 -629 -466 -11 -34 0 -88 24 -109 29 -26 87 -22 150 11
178 92 410 -50 410 -252 0 -61 -34 -145 -78 -193 -32 -34 -2091 -1506 -2097
-1499 -1 2 -75 104 -165 227 -133 184 -160 226 -148 236 7 7 283 207 613 445
330 238 606 440 613 448 6 9 12 35 12 59 0 33 -6 50 -25 68 -32 33 -75 32
-150 -5 -114 -57 -231 -35 -325 59 -58 58 -90 128 -90 194 0 38 43 124 89 177
38 43 2089 1510 2106 1506 5 -1 81 -101 169 -221z m-2981 -3056 l126 -186
-242 -40 c-133 -23 -242 -40 -243 -39 -5 6 222 464 227 458 3 -4 63 -91 132
-193z"/>
</g>
</svg>
