<svg xmlns="http://www.w3.org/2000/svg" viewBox="0 0 447.37 409.39"><defs><style>.cls-1{fill:#fff;}</style></defs><title>Asset 1</title><g id="Layer_2" data-name="Layer 2"><g id="Expanded"><path class="cls-1" d="M447.37,0,350.3,14.77h0c-2.11,0-2.11,0-4.22,2.11l-211,149.83c-8.44,6.33-16.88,16.88-19,29.54s0,25.32,8.44,33.76c6.33,8.44,14.77,14.77,25.32,16.88L48.54,318.65a2.07,2.07,0,0,0-2.11,2.11h0L0,409.39l97.07-14.77h0c2.11,0,2.11,0,4.22-2.11l211-149.83c10.55-6.33,16.88-16.88,19-29.54s0-25.32-8.44-33.76c-6.33-8.44-14.77-14.77-25.32-16.88L398.84,90.74a2.07,2.07,0,0,0,2.11-2.11h0ZM394.62,67.53l-27.43-38,50.65-8.44ZM54.87,341.86,82.3,382,31.65,390.4Zm204.69-173c-4.22,2.11-4.22,8.44-2.11,12.66s8.44,4.22,12.66,2.11h0c6.33-4.22,14.77-6.33,21.1-4.22q12.66,3.17,19,12.66c4.22,6.33,6.33,14.77,4.22,21.1q-3.17,12.66-12.66,19L97.07,377.74,63.31,331.31,185.7,242.68c4.22-2.11,4.22-8.44,2.11-12.66s-8.44-4.22-12.66-2.11h0c-6.33,4.22-14.77,6.33-21.1,4.22q-12.66-3.17-19-12.66c-4.22-6.33-6.33-14.77-4.22-21.1,4.22-8.44,8.44-14.77,14.77-19L350.3,33.76l33.76,46.43Z"/></g></g></svg>