<?xml version="1.0" encoding="utf-8"?>
<!-- Generator: Adobe Illustrator 21.0.0, SVG Export Plug-In . SVG Version: 6.00 Build 0)  -->
<svg version="1.1" id="Layer_1" xmlns="http://www.w3.org/2000/svg" xmlns:xlink="http://www.w3.org/1999/xlink" x="0px" y="0px"
	 viewBox="0 0 198 31.5" style="enable-background:new 0 0 198 31.5;" xml:space="preserve">
<style type="text/css">
	.st0{fill:#FFFFFF;}
</style>
<path class="st0" d="M22.2,0H5.9C4.5,0,3.3,1.2,3.3,2.6v0.8H2.6C1.2,3.5,0,4.7,0,6V29c0,1.5,1.2,2.6,2.6,2.6h16.3
	c1.4,0,2.6-1.2,2.6-2.6v-0.8h0.8c1.4,0,2.6-1.2,2.6-2.6V2.6C24.8,1.2,23.7,0,22.2,0z M20.2,29.1c0,0.8-0.6,1.4-1.4,1.4H2.6
	c-0.8,0-1.4-0.6-1.4-1.4V6c0-0.8,0.6-1.4,1.4-1.4h0.8v21c0,1.5,1.2,2.6,2.6,2.6h14.3V29.1z M5.9,27c-0.8,0-1.4-0.6-1.4-1.4V2.6
	c0-0.8,0.6-1.4,1.4-1.4h16.3c0.8,0,1.4,0.6,1.4,1.4v23.1c0,0.8-0.6,1.4-1.4,1.4H5.9z"/>
<path class="st0" d="M19.2,5.9c-9.2,3.8-10,13.4-10,14.2c0.6-0.6,1.5-1.5,3-2.7c2.7-2.3,6-4.1,6.2-4.2c0.3-0.2,0.6,0,0.8,0.3
	c0.2,0.3,0,0.6-0.3,0.9c0,0-3.3,1.8-5.9,4.1c-1.2,1.1-2.1,1.8-2.6,2.3c2.1,0.9,6.8,2.7,11.8,2c9.1-1.4,14.5-13.1,14.5-13.1
	S30.8,1.2,19.2,5.9z"/>
<g>
	<path class="st0" d="M52.5,13h7.2v10c-1.2,0.5-2.3,0.6-3.5,0.8C55.2,23.8,54,24,52.8,24c-3,0-5.3-0.9-6.9-2.7
		c-1.7-1.8-2.4-4.2-2.4-7.5c0-3.2,0.9-5.7,2.7-7.4s4.4-2.7,7.5-2.7c2.1,0,4.1,0.5,5.9,1.2l-1.1,2.7c-1.7-0.8-3.2-1.1-4.8-1.1
		c-2.1,0-3.8,0.6-5,2c-1.2,1.4-1.8,3.2-1.8,5.4c0,2.4,0.6,4.2,1.7,5.4c1.1,1.2,2.7,1.8,4.8,1.8c1.1,0,2.1-0.2,3.3-0.5v-5.1h-4.1V13
		H52.5z"/>
	<path class="st0" d="M71.8,8.6c0.6,0,1.2,0,1.5,0.2l-0.3,3c-0.5-0.2-0.9-0.2-1.4-0.2c-1.2,0-2.3,0.5-3,1.2c-0.8,0.8-1.2,2-1.2,3.2
		v7.8h-3.2V8.8h2.4l0.5,2.6h0.2c0.5-0.9,1.2-1.7,2-2.1C70,8.8,70.9,8.6,71.8,8.6z"/>
	<path class="st0" d="M82.7,24c-2.3,0-4.1-0.6-5.4-2s-2-3.2-2-5.6s0.6-4.4,1.8-5.7c1.2-1.4,2.9-2.1,5-2.1c2,0,3.5,0.6,4.7,1.8
		s1.7,2.9,1.7,5v1.7h-10c0,1.5,0.5,2.6,1.2,3.3c0.8,0.8,1.8,1.2,3.2,1.2c0.9,0,1.7-0.2,2.4-0.3c0.8-0.2,1.5-0.5,2.4-0.8v2.6
		c-0.8,0.3-1.5,0.6-2.4,0.8C84.7,24,83.8,24,82.7,24z M82.1,11c-1.1,0-1.8,0.3-2.4,0.9s-0.9,1.5-1.1,2.9h6.8c0-1.2-0.3-2.1-0.9-2.9
		C83.9,11.3,83.2,11,82.1,11z"/>
	<path class="st0" d="M98.5,24c-2.3,0-4.1-0.6-5.4-2c-1.4-1.4-2-3.2-2-5.6s0.6-4.4,1.8-5.7s2.9-2.1,5-2.1c2,0,3.5,0.6,4.7,1.8
		c1.2,1.2,1.7,2.9,1.7,5v1.7h-10c0,1.5,0.5,2.6,1.2,3.3s1.8,1.2,3.2,1.2c0.9,0,1.7-0.2,2.4-0.3c0.8-0.2,1.5-0.5,2.4-0.8v2.6
		c-0.8,0.3-1.5,0.6-2.4,0.8C100.5,24,99.6,24,98.5,24z M97.9,11c-1.1,0-1.8,0.3-2.4,0.9c-0.6,0.6-0.9,1.5-1.1,2.9h6.8
		c0-1.2-0.3-2.1-0.9-2.9C99.8,11.3,99,11,97.9,11z"/>
	<path class="st0" d="M121.2,23.7H118v-9.1c0-1.2-0.3-2-0.8-2.6s-1.2-0.9-2.3-0.9c-1.4,0-2.3,0.5-2.9,1.2s-0.9,2.1-0.9,3.9v7.4h-3.2
		V8.8h2.4l0.5,2h0.2c0.5-0.8,1.1-1.2,2-1.7c0.9-0.5,1.8-0.6,2.7-0.6c3.6,0,5.4,1.8,5.4,5.4C121.2,13.9,121.2,23.7,121.2,23.7z"/>
	<path class="st0" d="M137.2,18.4c0,1.8-0.6,3.2-2,4.1s-3,1.5-5.3,1.5s-4.1-0.3-5.4-1.1v-3c0.9,0.5,1.8,0.8,2.9,1.1
		c1.1,0.3,2,0.3,2.9,0.3c1.2,0,2.3-0.3,2.9-0.8c0.6-0.5,0.9-1.2,0.9-2c0-0.8-0.3-1.4-0.9-1.8c-0.6-0.5-1.7-1.1-3.5-1.8
		c-1.8-0.8-3-1.5-3.8-2.6c-0.6-0.9-1.1-2-1.1-3.3c0-1.7,0.6-2.9,1.8-3.9c1.2-0.9,2.7-1.4,4.7-1.4s3.8,0.5,5.6,1.2L136,7.5
		c-1.8-0.8-3.3-1.1-4.7-1.1c-1.1,0-1.8,0.3-2.4,0.8c-0.6,0.5-0.9,1.1-0.9,1.8c0,0.5,0.2,0.9,0.3,1.4c0.2,0.3,0.6,0.8,1.1,1.1
		c0.5,0.3,1.4,0.8,2.7,1.2c1.5,0.6,2.6,1.2,3.2,1.7c0.6,0.5,1.2,1.1,1.5,1.8C137,16.8,137.2,17.5,137.2,18.4z"/>
	<path class="st0" d="M153.8,23.7h-3.2v-9.1c0-1.2-0.3-2-0.8-2.6c-0.5-0.6-1.2-0.9-2.3-0.9c-1.4,0-2.3,0.5-2.9,1.2
		c-0.6,0.8-0.9,2.1-0.9,4.1v7.4h-3.2V2.7h3.2V8c0,0.9,0,1.8-0.2,2.7h0.2c0.5-0.8,1.1-1.2,1.8-1.7c0.8-0.5,1.7-0.6,2.7-0.6
		c3.6,0,5.4,1.8,5.4,5.4V23.7z"/>
	<path class="st0" d="M164.8,24c-2.3,0-4.1-0.6-5.4-2c-1.4-1.4-2-3.2-2-5.6s0.6-4.4,1.8-5.7c1.2-1.4,2.9-2.1,5-2.1
		c2,0,3.5,0.6,4.7,1.8c1.2,1.2,1.7,2.9,1.7,5v1.7h-10c0,1.5,0.5,2.6,1.2,3.3s1.8,1.2,3.2,1.2c0.9,0,1.7-0.2,2.4-0.3
		c0.8-0.2,1.5-0.5,2.4-0.8v2.6c-0.8,0.3-1.5,0.6-2.4,0.8C166.8,24,165.9,24,164.8,24z M164.2,11c-1.1,0-1.8,0.3-2.4,0.9
		c-0.6,0.6-0.9,1.5-1.1,2.9h6.8c0-1.2-0.3-2.1-0.9-2.9C166,11.3,165.3,11,164.2,11z"/>
	<path class="st0" d="M180.6,24c-2.3,0-4.1-0.6-5.4-2c-1.4-1.4-2-3.2-2-5.6s0.6-4.4,1.8-5.7c1.2-1.4,2.9-2.1,5-2.1
		c2,0,3.5,0.6,4.7,1.8c1.2,1.2,1.7,2.9,1.7,5v1.7h-9.8c0,1.5,0.5,2.6,1.2,3.3s1.8,1.2,3.2,1.2c0.9,0,1.7-0.2,2.4-0.3
		c0.8-0.2,1.5-0.5,2.4-0.8v2.6c-0.8,0.3-1.5,0.6-2.4,0.8C182.6,24,181.7,24,180.6,24z M180.2,11c-1.1,0-1.8,0.3-2.4,0.9
		c-0.6,0.6-0.9,1.5-1.1,2.9h6.8c0-1.2-0.3-2.1-0.9-2.9C181.9,11.3,181.1,11,180.2,11z"/>
	<path class="st0" d="M195.7,21.4c0.8,0,1.5-0.2,2.3-0.3v2.4c-0.3,0.2-0.8,0.3-1.4,0.5c-0.6,0.2-1.1,0.2-1.7,0.2
		c-3,0-4.5-1.5-4.5-4.7v-8.3h-2.1V9.8l2.1-1.2l1.1-3.2h2v3.3h4.2v2.4h-4.2v8c0,0.8,0.2,1.4,0.6,1.7C194.5,21.3,195,21.4,195.7,21.4z
		"/>
</g>
</svg>
