<?xml version="1.0" encoding="utf-8"?>
<!-- Generator: Adobe Illustrator 21.0.0, SVG Export Plug-In . SVG Version: 6.00 Build 0)  -->
<svg version="1.1" id="Layer_1" xmlns="http://www.w3.org/2000/svg" xmlns:xlink="http://www.w3.org/1999/xlink" x="0px" y="0px"
	 viewBox="0 0 25.5 21" style="enable-background:new 0 0 25.5 21;" xml:space="preserve">
<style type="text/css">
	.st0{fill:#FFFFFF;}
</style>
<path class="st0" d="M15.5,0H4.1c-1,0-1.8,0.8-1.8,1.7v0.5H1.8C0.8,2.3,0,3.1,0,4v15.2c0,1,0.8,1.7,1.8,1.7h11.4
	c1,0,1.8-0.8,1.8-1.7v-0.5h0.6c1,0,1.8-0.8,1.8-1.7V1.7C17.3,0.8,16.5,0,15.5,0z M14.1,19.3c0,0.5-0.4,0.9-0.9,0.9H1.8
	c-0.5,0-0.9-0.4-0.9-0.9V4c0-0.5,0.4-0.9,0.9-0.9h0.6V17c0,1,0.8,1.7,1.8,1.7h10V19.3z M4.1,17.9c-0.5,0-0.9-0.4-0.9-0.9V1.7
	c0-0.5,0.4-0.9,0.9-0.9h11.4c0.5,0,0.9,0.4,0.9,0.9V17c0,0.5-0.4,0.9-0.9,0.9H4.1z"/>
<path class="st0" d="M13.4,3.9c-6.4,2.5-6.9,8.9-7,9.4c0.4-0.4,1.1-1,2.1-1.8c1.9-1.5,4.2-2.7,4.3-2.8c0.2-0.1,0.5,0,0.6,0.2
	c0.1,0.2,0,0.4-0.2,0.6c0,0-2.3,1.2-4.2,2.7c-0.8,0.7-1.4,1.2-1.8,1.5c1.4,0.6,4.7,1.8,8.2,1.3c6.3-0.9,10.1-8.7,10.1-8.7
	S21.4,0.8,13.4,3.9z"/>
</svg>
