<?xml version="1.0" encoding="utf-8"?>
<!-- Generator: Adobe Illustrator 21.0.0, SVG Export Plug-In . SVG Version: 6.00 Build 0)  -->
<svg version="1.1" id="Layer_2" xmlns="http://www.w3.org/2000/svg" xmlns:xlink="http://www.w3.org/1999/xlink" x="0px" y="0px"
	 viewBox="0 0 131.6 21" style="enable-background:new 0 0 131.6 21;" xml:space="preserve">
<style type="text/css">
	.st0{fill:#FFFFFF;}
</style>
<path class="st0" d="M14.7,0H3.9C3,0,2.2,0.8,2.2,1.7v0.5H1.7C0.8,2.3,0,3.1,0,4v15.2c0,1,0.8,1.7,1.7,1.7h10.8
	c0.9,0,1.7-0.8,1.7-1.7v-0.5h0.5c0.9,0,1.7-0.8,1.7-1.7V1.7C16.4,0.8,15.7,0,14.7,0z M13.4,19.3c0,0.5-0.4,0.9-0.9,0.9H1.7
	c-0.5,0-0.9-0.4-0.9-0.9V4c0-0.5,0.4-0.9,0.9-0.9h0.5V17c0,1,0.8,1.7,1.7,1.7h9.5V19.3z M3.9,17.9C3.4,17.9,3,17.5,3,17V1.7
	c0-0.5,0.4-0.9,0.9-0.9h10.8c0.5,0,0.9,0.4,0.9,0.9V17c0,0.5-0.4,0.9-0.9,0.9H3.9z"/>
<path class="st0" d="M12.7,3.9c-6.1,2.5-6.6,8.9-6.6,9.4c0.4-0.4,1-1,2-1.8c1.8-1.5,4-2.7,4.1-2.8c0.2-0.1,0.4,0,0.5,0.2
	c0.1,0.2,0,0.4-0.2,0.6c0,0-2.2,1.2-3.9,2.7c-0.8,0.7-1.4,1.2-1.7,1.5c1.4,0.6,4.5,1.8,7.8,1.3c6-0.9,9.6-8.7,9.6-8.7
	S20.4,0.8,12.7,3.9z"/>
<g>
	<path class="st0" d="M34.8,8.6h4.8v6.6c-0.8,0.3-1.5,0.4-2.3,0.5c-0.7,0.1-1.5,0.2-2.3,0.2c-2,0-3.5-0.6-4.6-1.8
		c-1.1-1.2-1.6-2.8-1.6-5c0-2.1,0.6-3.8,1.8-4.9s2.9-1.8,5-1.8c1.4,0,2.7,0.3,3.9,0.8L38.8,5c-1.1-0.5-2.1-0.7-3.2-0.7
		c-1.4,0-2.5,0.4-3.3,1.3c-0.8,0.9-1.2,2.1-1.2,3.6c0,1.6,0.4,2.8,1.1,3.6c0.7,0.8,1.8,1.2,3.2,1.2c0.7,0,1.4-0.1,2.2-0.3v-3.4h-2.7
		V8.6z"/>
	<path class="st0" d="M47.6,5.7c0.4,0,0.8,0,1,0.1l-0.2,2c-0.3-0.1-0.6-0.1-0.9-0.1c-0.8,0-1.5,0.3-2,0.8s-0.8,1.3-0.8,2.1v5.2h-2.1
		V5.8h1.6l0.3,1.7h0.1c0.3-0.6,0.8-1.1,1.3-1.4S47,5.7,47.6,5.7z"/>
	<path class="st0" d="M54.8,15.9c-1.5,0-2.7-0.4-3.6-1.3s-1.3-2.1-1.3-3.7c0-1.6,0.4-2.9,1.2-3.8s1.9-1.4,3.3-1.4
		c1.3,0,2.3,0.4,3.1,1.2s1.1,1.9,1.1,3.3v1.1H52c0,1,0.3,1.7,0.8,2.2c0.5,0.5,1.2,0.8,2.1,0.8c0.6,0,1.1-0.1,1.6-0.2
		c0.5-0.1,1-0.3,1.6-0.5v1.7c-0.5,0.2-1,0.4-1.6,0.5C56.1,15.9,55.5,15.9,54.8,15.9z M54.4,7.3c-0.7,0-1.2,0.2-1.6,0.6
		c-0.4,0.4-0.6,1-0.7,1.9h4.5c0-0.8-0.2-1.4-0.6-1.9C55.6,7.5,55.1,7.3,54.4,7.3z"/>
	<path class="st0" d="M65.3,15.9c-1.5,0-2.7-0.4-3.6-1.3s-1.3-2.1-1.3-3.7c0-1.6,0.4-2.9,1.2-3.8s1.9-1.4,3.3-1.4
		c1.3,0,2.3,0.4,3.1,1.2s1.1,1.9,1.1,3.3v1.1h-6.6c0,1,0.3,1.7,0.8,2.2c0.5,0.5,1.2,0.8,2.1,0.8c0.6,0,1.1-0.1,1.6-0.2
		c0.5-0.1,1-0.3,1.6-0.5v1.7c-0.5,0.2-1,0.4-1.6,0.5C66.6,15.9,66,15.9,65.3,15.9z M64.9,7.3c-0.7,0-1.2,0.2-1.6,0.6
		c-0.4,0.4-0.6,1-0.7,1.9h4.5c0-0.8-0.2-1.4-0.6-1.9C66.1,7.5,65.6,7.3,64.9,7.3z"/>
	<path class="st0" d="M80.3,15.7h-2.1V9.7c0-0.8-0.2-1.3-0.5-1.7c-0.3-0.4-0.8-0.6-1.5-0.6c-0.9,0-1.5,0.3-1.9,0.8
		c-0.4,0.5-0.6,1.4-0.6,2.6v4.9h-2.1V5.8h1.6l0.3,1.3h0.1c0.3-0.5,0.7-0.8,1.3-1.1s1.2-0.4,1.8-0.4c2.4,0,3.6,1.2,3.6,3.6V15.7z"/>
	<path class="st0" d="M90.9,12.2c0,1.2-0.4,2.1-1.3,2.7s-2,1-3.5,1s-2.7-0.2-3.6-0.7v-2c0.6,0.3,1.2,0.5,1.9,0.7
		c0.7,0.2,1.3,0.2,1.9,0.2c0.8,0,1.5-0.2,1.9-0.5c0.4-0.3,0.6-0.8,0.6-1.3c0-0.5-0.2-0.9-0.6-1.2c-0.4-0.3-1.1-0.7-2.3-1.2
		c-1.2-0.5-2-1-2.5-1.7C83,7.6,82.7,6.9,82.7,6c0-1.1,0.4-1.9,1.2-2.6c0.8-0.6,1.8-0.9,3.1-0.9c1.3,0,2.5,0.3,3.7,0.8L90.1,5
		c-1.2-0.5-2.2-0.7-3.1-0.7c-0.7,0-1.2,0.2-1.6,0.5C85,5.1,84.8,5.5,84.8,6c0,0.3,0.1,0.6,0.2,0.9c0.1,0.2,0.4,0.5,0.7,0.7
		c0.3,0.2,0.9,0.5,1.8,0.8c1,0.4,1.7,0.8,2.1,1.1c0.4,0.3,0.8,0.7,1,1.2C90.8,11.1,90.9,11.6,90.9,12.2z"/>
	<path class="st0" d="M101.9,15.7h-2.1V9.7c0-0.8-0.2-1.3-0.5-1.7c-0.3-0.4-0.8-0.6-1.5-0.6c-0.9,0-1.5,0.3-1.9,0.8
		c-0.4,0.5-0.6,1.4-0.6,2.7v4.9h-2.1V1.8h2.1v3.5c0,0.6,0,1.2-0.1,1.8h0.1c0.3-0.5,0.7-0.8,1.2-1.1c0.5-0.3,1.1-0.4,1.8-0.4
		c2.4,0,3.6,1.2,3.6,3.6V15.7z"/>
	<path class="st0" d="M109.2,15.9c-1.5,0-2.7-0.4-3.6-1.3s-1.3-2.1-1.3-3.7c0-1.6,0.4-2.9,1.2-3.8s1.9-1.4,3.3-1.4
		c1.3,0,2.3,0.4,3.1,1.2s1.1,1.9,1.1,3.3v1.1h-6.6c0,1,0.3,1.7,0.8,2.2c0.5,0.5,1.2,0.8,2.1,0.8c0.6,0,1.1-0.1,1.6-0.2
		c0.5-0.1,1-0.3,1.6-0.5v1.7c-0.5,0.2-1,0.4-1.6,0.5C110.5,15.9,109.9,15.9,109.2,15.9z M108.8,7.3c-0.7,0-1.2,0.2-1.6,0.6
		c-0.4,0.4-0.6,1-0.7,1.9h4.5c0-0.8-0.2-1.4-0.6-1.9C110,7.5,109.5,7.3,108.8,7.3z"/>
	<path class="st0" d="M119.7,15.9c-1.5,0-2.7-0.4-3.6-1.3s-1.3-2.1-1.3-3.7c0-1.6,0.4-2.9,1.2-3.8s1.9-1.4,3.3-1.4
		c1.3,0,2.3,0.4,3.1,1.2s1.1,1.9,1.1,3.3v1.1H117c0,1,0.3,1.7,0.8,2.2c0.5,0.5,1.2,0.8,2.1,0.8c0.6,0,1.1-0.1,1.6-0.2
		c0.5-0.1,1-0.3,1.6-0.5v1.7c-0.5,0.2-1,0.4-1.6,0.5C121,15.9,120.4,15.9,119.7,15.9z M119.4,7.3c-0.7,0-1.2,0.2-1.6,0.6
		c-0.4,0.4-0.6,1-0.7,1.9h4.5c0-0.8-0.2-1.4-0.6-1.9C120.5,7.5,120,7.3,119.4,7.3z"/>
	<path class="st0" d="M129.7,14.2c0.5,0,1-0.1,1.5-0.2v1.6c-0.2,0.1-0.5,0.2-0.9,0.3c-0.4,0.1-0.7,0.1-1.1,0.1c-2,0-3-1-3-3.1V7.4
		h-1.4V6.5l1.4-0.8l0.7-2.1h1.3v2.2h2.8v1.6h-2.8v5.3c0,0.5,0.1,0.9,0.4,1.1C128.9,14.1,129.2,14.2,129.7,14.2z"/>
</g>
</svg>
