<?xml version="1.0" encoding="utf-8"?>
<!-- Generator: Adobe Illustrator 20.1.0, SVG Export Plug-In . SVG Version: 6.00 Build 0)  -->
<svg version="1.1" id="Layer_1" xmlns="http://www.w3.org/2000/svg" xmlns:xlink="http://www.w3.org/1999/xlink" x="0px" y="0px"
	 viewBox="0 0 110.8 31.5" style="enable-background:new 0 0 110.8 31.5;" xml:space="preserve">
<style type="text/css">
	.st0{display:none;fill:#5DAF2B;}
	.st1{fill:#FFFFFF;}
</style>
<rect class="st0" width="111" height="31.5"/>
<path class="st1" d="M31.7,0.2l-6.9,1.1l0,0c-0.1,0-0.1,0-0.3,0.2l-15,10.9c-0.6,0.5-1.2,1.2-1.3,2.2c-0.1,0.9,0,1.8,0.6,2.5
	c0.4,0.6,1,1.1,1.8,1.2l-7.2,5.2c-0.1,0-0.1,0.2-0.1,0.2l0,0L0,30.1L6.9,29l0,0C7,29,7,29,7.2,28.8l15-10.9c0.7-0.5,1.2-1.2,1.3-2.2
	s0-1.8-0.6-2.5c-0.4-0.6-1-1.1-1.8-1.2l7.2-5.2c0.1,0,0.1-0.2,0.1-0.2l0,0L31.7,0.2z M28,5.1l-2-2.7l3.6-0.6L28,5.1z M3.9,25.1
	L5.8,28l-3.6,0.6L3.9,25.1z M18.4,12.5c-0.3,0.2-0.3,0.6-0.1,0.9c0.1,0.3,0.6,0.3,0.9,0.2l0,0c0.4-0.3,1-0.5,1.5-0.3
	c0.6,0.2,1,0.5,1.3,0.9c0.3,0.5,0.4,1.1,0.3,1.5c-0.1,0.6-0.4,1.1-0.9,1.4L6.9,27.8l-2.4-3.4l8.7-6.5c0.3-0.2,0.3-0.6,0.1-0.9
	c-0.1-0.3-0.6-0.3-0.9-0.2l0,0l0,0c-0.4,0.3-1,0.5-1.5,0.3c-0.6-0.2-1-0.5-1.3-0.9c-0.3-0.5-0.4-1.1-0.3-1.5c0.3-0.6,0.6-1.1,1-1.4
	L24.8,2.7l2.4,3.4L18.4,12.5z"/>
<g>
	<path class="st1" d="M54.3,18.1c0,1.7-0.6,3.1-1.9,4.1c-1.3,1-3,1.5-5.1,1.5c-2.3,0-4.1-0.3-5.4-0.9v-2.2c0.8,0.3,1.7,0.6,2.6,0.8
		c1,0.2,1.9,0.3,2.8,0.3c1.5,0,2.7-0.3,3.5-0.9s1.2-1.4,1.2-2.4c0-0.7-0.1-1.2-0.4-1.7s-0.7-0.8-1.4-1.2s-1.6-0.8-2.9-1.3
		c-1.8-0.7-3.2-1.4-3.9-2.3c-0.8-0.9-1.2-2.1-1.2-3.5c0-1.5,0.6-2.7,1.7-3.6s2.7-1.4,4.5-1.4c2,0,3.8,0.4,5.4,1.1l-0.7,2
		c-1.6-0.7-3.2-1-4.8-1c-1.2,0-2.2,0.3-2.9,0.8s-1,1.2-1,2.2c0,0.7,0.1,1.2,0.4,1.7c0.3,0.4,0.7,0.8,1.3,1.2s1.5,0.8,2.7,1.2
		c2.1,0.7,3.5,1.5,4.3,2.4C53.9,15.7,54.3,16.8,54.3,18.1z"/>
	<path class="st1" d="M64,23.6c-2.1,0-3.8-0.7-5-2s-1.8-3.2-1.8-5.6c0-2.5,0.6-4.4,1.8-5.7c1.2-1.4,2.9-2,5.1-2
		c0.7,0,1.4,0.1,2.1,0.2c0.7,0.2,1.3,0.3,1.7,0.5l-0.7,2c-0.5-0.2-1-0.4-1.6-0.5s-1.1-0.2-1.6-0.2c-3,0-4.5,1.9-4.5,5.8
		c0,1.8,0.4,3.2,1.1,4.2c0.7,1,1.8,1.5,3.3,1.5c1.2,0,2.5-0.3,3.8-0.8v2C66.7,23.4,65.5,23.6,64,23.6z"/>
	<path class="st1" d="M84,15.9c0,2.4-0.6,4.3-1.8,5.7c-1.2,1.4-2.9,2-5,2c-1.3,0-2.5-0.3-3.5-0.9s-1.8-1.5-2.4-2.7s-0.8-2.5-0.8-4.1
		c0-2.4,0.6-4.3,1.8-5.6c1.2-1.3,2.9-2,5-2S81,9,82.2,10.4S84,13.6,84,15.9z M72.7,15.9c0,1.9,0.4,3.3,1.1,4.3
		c0.8,1,1.9,1.5,3.3,1.5s2.6-0.5,3.3-1.5c0.8-1,1.1-2.4,1.1-4.3s-0.4-3.3-1.1-4.3c-0.8-1-1.9-1.5-3.4-1.5s-2.6,0.5-3.3,1.4
		C73.1,12.6,72.7,14,72.7,15.9z"/>
	<path class="st1" d="M94.7,8.3c0.7,0,1.2,0.1,1.8,0.2l-0.3,2.1c-0.6-0.1-1.2-0.2-1.6-0.2c-1.2,0-2.2,0.5-3.1,1.5s-1.3,2.2-1.3,3.6
		v7.9H88V8.6h1.9l0.3,2.7h0.1c0.5-1,1.2-1.7,2-2.2C92.9,8.5,93.8,8.3,94.7,8.3z"/>
	<path class="st1" d="M96.9,8.6h2.4l3.2,8.4c0.7,1.9,1.2,3.3,1.3,4.2h0.1c0.1-0.5,0.4-1.2,0.7-2.4c0.4-1.1,1.6-4.5,3.7-10.3h2.4
		l-6.4,16.9c-0.6,1.7-1.4,2.8-2.2,3.5c-0.8,0.7-1.9,1-3.1,1c-0.7,0-1.4-0.1-2-0.2V28c0.5,0.1,1,0.2,1.7,0.2c1.5,0,2.6-0.9,3.3-2.6
		l0.8-2.1L96.9,8.6z"/>
</g>
</svg>
