<?xml version="1.0" encoding="utf-8"?>
<!-- Generator: Adobe Illustrator 20.1.0, SVG Export Plug-In . SVG Version: 6.00 Build 0)  -->
<svg version="1.1" id="Layer_1" xmlns="http://www.w3.org/2000/svg" xmlns:xlink="http://www.w3.org/1999/xlink" x="0px" y="0px"
	 viewBox="0 0 25.5 21" style="enable-background:new 0 0 25.5 21;" xml:space="preserve">
<style type="text/css">
	.st0{display:none;fill:#5DAF2B;}
	.st1{display:none;fill:#FFFFFF;}
	.st2{opacity:0.5;}
	.st3{fill:#FFFFFF;}
</style>
<rect x="-1.3" y="-0.9" class="st0" width="30.6" height="24.7"/>
<path class="st1" d="M15.5,0H4.1c-1,0-1.8,0.8-1.8,1.7v0.5H1.8C0.8,2.3,0,3.1,0,4v15.2c0,1,0.8,1.7,1.8,1.7h11.4
	c1,0,1.8-0.8,1.8-1.7v-0.5h0.6c1,0,1.8-0.8,1.8-1.7V1.7C17.3,0.8,16.5,0,15.5,0z M14.1,19.3c0,0.5-0.4,0.9-0.9,0.9H1.8
	c-0.5,0-0.9-0.4-0.9-0.9V4c0-0.5,0.4-0.9,0.9-0.9h0.6V17c0,1,0.8,1.7,1.8,1.7h10L14.1,19.3L14.1,19.3z M4.1,17.9
	c-0.5,0-0.9-0.4-0.9-0.9V1.7c0-0.5,0.4-0.9,0.9-0.9h11.4c0.5,0,0.9,0.4,0.9,0.9V17c0,0.5-0.4,0.9-0.9,0.9H4.1z"/>
<path class="st1" d="M13.4,3.9c-6.4,2.5-6.9,8.9-7,9.4c0.4-0.4,1.1-1,2.1-1.8c1.9-1.5,4.2-2.7,4.3-2.8c0.2-0.1,0.5,0,0.6,0.2
	s0,0.4-0.2,0.6c0,0-2.3,1.2-4.2,2.7c-0.8,0.7-1.4,1.2-1.8,1.5c1.4,0.6,4.7,1.8,8.2,1.3c6.3-0.9,10.1-8.7,10.1-8.7S21.4,0.8,13.4,3.9
	z"/>
<path class="st2" d="M24.3,1.8l-4.6,0.7l0,0c-0.1,0-0.1,0-0.2,0.1l-10,7.1c-0.4,0.3-0.8,0.8-0.9,1.4c-0.1,0.6,0,1.2,0.4,1.6
	c0.3,0.4,0.7,0.7,1.2,0.8l-4.8,3.4c-0.1,0-0.1,0.1-0.1,0.1l0,0l-2.2,4.2l4.6-0.7l0,0c0.1,0,0.1,0,0.2-0.1l10-7.1
	c0.5-0.3,0.8-0.8,0.9-1.4c0.1-0.6,0-1.2-0.4-1.6c-0.3-0.4-0.7-0.7-1.2-0.8L22,6.1c0.1,0,0.1-0.1,0.1-0.1l0,0L24.3,1.8z M21.8,5
	l-1.3-1.8l2.4-0.4L21.8,5z M5.7,18L7,19.9l-2.4,0.4L5.7,18z M15.4,9.8c-0.2,0.1-0.2,0.4-0.1,0.6c0.1,0.2,0.4,0.2,0.6,0.1l0,0
	c0.3-0.2,0.7-0.3,1-0.2c0.4,0.1,0.7,0.3,0.9,0.6c0.2,0.3,0.3,0.7,0.2,1c-0.1,0.4-0.3,0.7-0.6,0.9l-9.7,6.9l-1.6-2.2l5.8-4.2
	c0.2-0.1,0.2-0.4,0.1-0.6c-0.1-0.2-0.4-0.2-0.6-0.1l0,0l0,0c-0.3,0.2-0.7,0.3-1,0.2c-0.4-0.1-0.7-0.3-0.9-0.6s-0.3-0.7-0.2-1
	c0.2-0.4,0.4-0.7,0.7-0.9l9.7-6.9l1.6,2.2L15.4,9.8z"/>
<path class="st3" d="M23.3,0.8l-4.6,0.7l0,0c-0.1,0-0.1,0-0.2,0.1l-10,7.1C8.1,9,7.7,9.5,7.6,10.1s0,1.2,0.4,1.6
	c0.3,0.4,0.7,0.7,1.2,0.8l-4.8,3.4c-0.1,0-0.1,0.1-0.1,0.1l0,0l-2.2,4.2l4.6-0.7l0,0c0.1,0,0.1,0,0.2-0.1l10-7.1
	c0.5-0.3,0.8-0.8,0.9-1.4c0.1-0.6,0-1.2-0.4-1.6c-0.3-0.4-0.7-0.7-1.2-0.8L21,5.1c0.1,0,0.1-0.1,0.1-0.1l0,0L23.3,0.8z M20.8,4
	l-1.3-1.8l2.4-0.4L20.8,4z M4.7,17L6,18.9l-2.4,0.4L4.7,17z M14.4,8.8c-0.2,0.1-0.2,0.4-0.1,0.6c0.1,0.2,0.4,0.2,0.6,0.1l0,0
	c0.3-0.2,0.7-0.3,1-0.2c0.4,0.1,0.7,0.3,0.9,0.6c0.2,0.3,0.3,0.7,0.2,1c-0.1,0.4-0.3,0.7-0.6,0.9l-9.7,6.9l-1.6-2.2l5.8-4.2
	c0.2-0.1,0.2-0.4,0.1-0.6c-0.1-0.2-0.4-0.2-0.6-0.1l0,0l0,0c-0.3,0.2-0.7,0.3-1,0.2c-0.4-0.1-0.7-0.3-0.9-0.6s-0.3-0.7-0.2-1
	C8.5,9.8,8.7,9.5,9,9.3l9.7-6.9l1.6,2.2L14.4,8.8z"/>
</svg>
