<?xml version="1.0" encoding="utf-8"?>
<!-- Generator: Adobe Illustrator 20.1.0, SVG Export Plug-In . SVG Version: 6.00 Build 0)  -->
<svg version="1.1" id="Layer_2" xmlns="http://www.w3.org/2000/svg" xmlns:xlink="http://www.w3.org/1999/xlink" x="0px" y="0px"
	 viewBox="0 0 74.1 21" style="enable-background:new 0 0 74.1 21;" xml:space="preserve">
<style type="text/css">
	.st0{display:none;fill:#5DAF2B;}
	.st1{opacity:0.35;}
	.st2{fill:#FFFFFF;}
</style>
<rect x="0" class="st0" width="74.1" height="21"/>
<g>
	<path class="st1" d="M22.2,1l-4.6,0.7l0,0c-0.1,0-0.1,0-0.2,0.1l-10,7.3C7,9.4,6.6,9.9,6.5,10.6c-0.1,0.6,0,1.2,0.4,1.6
		c0.3,0.4,0.7,0.7,1.2,0.8l-4.8,3.5c-0.1,0-0.1,0.1-0.1,0.1l0,0L1,21l4.6-0.7l0,0c0.1,0,0.1,0,0.2-0.1l10-7.3
		c0.5-0.3,0.8-0.8,0.9-1.4c0.1-0.6,0-1.2-0.4-1.6C16,9.3,15.6,9,15.1,8.9l4.8-3.5C20,5.4,20,5.3,20,5.3l0,0L22.2,1z M19.7,4.3
		l-1.3-1.9L20.8,2L19.7,4.3z M3.6,17.7l1.3,2L2.5,20L3.6,17.7z M13.3,9.2c-0.2,0.1-0.2,0.4-0.1,0.6c0.1,0.2,0.4,0.2,0.6,0.1l0,0
		c0.3-0.2,0.7-0.3,1-0.2c0.4,0.1,0.7,0.3,0.9,0.6c0.2,0.3,0.3,0.7,0.2,1c-0.1,0.4-0.3,0.7-0.6,0.9l-9.7,7.1L4,17.1l5.8-4.3
		c0.2-0.1,0.2-0.4,0.1-0.6C9.8,12,9.5,12,9.3,12.1l0,0l0,0c-0.3,0.2-0.7,0.3-1,0.2c-0.4-0.1-0.7-0.3-0.9-0.6s-0.3-0.7-0.2-1
		c0.2-0.4,0.4-0.7,0.7-0.9l9.7-7.1l1.6,2.3L13.3,9.2z"/>
	<path class="st2" d="M21.2,0l-4.6,0.7l0,0c-0.1,0-0.1,0-0.2,0.1l-10,7.3C6,8.4,5.6,8.9,5.5,9.5s0,1.2,0.4,1.6
		c0.3,0.4,0.7,0.7,1.2,0.8l-4.8,3.5c-0.1,0-0.1,0.1-0.1,0.1l0,0L0,19.9l4.6-0.7l0,0c0.1,0,0.1,0,0.2-0.1l10-7.3
		c0.5-0.3,0.8-0.8,0.9-1.4c0.1-0.6,0-1.2-0.4-1.6C15,8.3,14.6,8,14.1,7.9l4.8-3.5C19,4.4,19,4.3,19,4.3l0,0L21.2,0z M18.7,3.2
		l-1.3-1.9L19.8,1L18.7,3.2z M2.6,16.6l1.3,2L1.5,19L2.6,16.6z M12.3,8.2c-0.2,0.1-0.2,0.4-0.1,0.6C12.3,9,12.6,9,12.8,8.9l0,0
		c0.3-0.2,0.7-0.3,1-0.2c0.4,0.1,0.7,0.3,0.9,0.6c0.2,0.3,0.3,0.7,0.2,1c-0.1,0.4-0.3,0.7-0.6,0.9l-9.7,7.1L3,16.1l5.8-4.3
		C9,11.7,9,11.4,8.9,11.2C8.8,11,8.5,11,8.3,11.1l0,0l0,0c-0.3,0.2-0.7,0.3-1,0.2c-0.4-0.1-0.7-0.3-0.9-0.6c-0.2-0.3-0.3-0.7-0.2-1
		c0.2-0.4,0.4-0.7,0.7-0.9l9.7-7.1l1.6,2.3L12.3,8.2z"/>
</g>
<g>
	<path class="st2" d="M36.3,11.9c0,1.2-0.4,2.1-1.3,2.7c-0.8,0.7-2,1-3.4,1c-1.6,0-2.8-0.2-3.6-0.6v-1.5c0.5,0.2,1.1,0.4,1.8,0.5
		c0.6,0.1,1.3,0.2,1.9,0.2c1,0,1.8-0.2,2.3-0.6s0.8-0.9,0.8-1.6c0-0.5-0.1-0.8-0.3-1.1s-0.5-0.6-0.9-0.8s-1.1-0.5-2-0.8
		c-1.2-0.4-2.1-1-2.6-1.6c-0.5-0.6-0.8-1.4-0.8-2.4c0-1,0.4-1.8,1.1-2.4s1.8-0.9,3-0.9c1.3,0,2.5,0.2,3.6,0.7l-0.5,1.3
		c-1.1-0.5-2.2-0.7-3.2-0.7c-0.8,0-1.4,0.2-1.9,0.5c-0.5,0.3-0.7,0.8-0.7,1.5c0,0.5,0.1,0.8,0.3,1.1c0.2,0.3,0.5,0.6,0.9,0.8
		c0.4,0.2,1,0.5,1.8,0.8c1.4,0.5,2.3,1,2.9,1.6C36.1,10.3,36.3,11,36.3,11.9z"/>
	<path class="st2" d="M42.7,15.6c-1.4,0-2.5-0.4-3.3-1.3c-0.8-0.9-1.2-2.1-1.2-3.7c0-1.7,0.4-2.9,1.2-3.8c0.8-0.9,1.9-1.4,3.4-1.4
		c0.5,0,1,0.1,1.4,0.2c0.5,0.1,0.8,0.2,1.1,0.4l-0.5,1.3c-0.3-0.1-0.7-0.2-1.1-0.3c-0.4-0.1-0.7-0.1-1-0.1c-2,0-3,1.3-3,3.8
		c0,1.2,0.2,2.2,0.7,2.8s1.2,1,2.2,1c0.8,0,1.7-0.2,2.5-0.5v1.3C44.6,15.5,43.8,15.6,42.7,15.6z"/>
	<path class="st2" d="M56.2,10.5c0,1.6-0.4,2.9-1.2,3.8c-0.8,0.9-1.9,1.4-3.4,1.4c-0.9,0-1.7-0.2-2.4-0.6c-0.7-0.4-1.2-1-1.6-1.8
		s-0.6-1.7-0.6-2.7c0-1.6,0.4-2.9,1.2-3.8c0.8-0.9,1.9-1.4,3.4-1.4c1.4,0,2.5,0.5,3.3,1.4S56.2,8.9,56.2,10.5z M48.6,10.5
		c0,1.3,0.3,2.2,0.8,2.9c0.5,0.7,1.3,1,2.2,1s1.7-0.3,2.2-1c0.5-0.7,0.8-1.6,0.8-2.9c0-1.3-0.3-2.2-0.8-2.9c-0.5-0.7-1.3-1-2.3-1
		c-1,0-1.7,0.3-2.2,1C48.9,8.2,48.6,9.2,48.6,10.5z"/>
	<path class="st2" d="M63.3,5.4c0.4,0,0.8,0,1.2,0.1l-0.2,1.4c-0.4-0.1-0.8-0.1-1.1-0.1c-0.8,0-1.5,0.3-2.1,1
		c-0.6,0.7-0.9,1.5-0.9,2.4v5.3h-1.5V5.5H60l0.2,1.8h0.1c0.4-0.6,0.8-1.1,1.3-1.5C62.1,5.5,62.7,5.4,63.3,5.4z"/>
	<path class="st2" d="M64.8,5.5h1.6l2.2,5.6c0.5,1.3,0.8,2.2,0.9,2.8h0.1c0.1-0.3,0.2-0.8,0.5-1.6s1.1-3,2.5-6.9h1.6l-4.3,11.3
		c-0.4,1.1-0.9,1.9-1.5,2.4c-0.6,0.5-1.3,0.7-2.1,0.7c-0.5,0-0.9-0.1-1.4-0.2v-1.2c0.3,0.1,0.7,0.1,1.1,0.1c1,0,1.8-0.6,2.2-1.7
		l0.6-1.4L64.8,5.5z"/>
</g>
</svg>
